<svg xmlns="http://www.w3.org/2000/svg" xmlns:xlink="http://www.w3.org/1999/xlink" width="298" height="180" viewBox="0 0 298 180">
    <defs>
        <path id="a" d="M.422.76h25.781v58.127H.423z"/>
        <path id="c" d="M.39.545h10.98v23.828H.39z"/>
    </defs>
    <g fill="none" fill-rule="evenodd">
        <path fill="#F79823" d="M44.81 95.191L26.762 75.466s8.225-6.683 8.25-13.139l27.03 8.502s-.944 14.968-17.234 24.362M39.689 60.987s.49-4.139-.76-7.868l16.03-6.657s5.807 4.627 4.443 19.265c0 0-10.908-3.022-19.713-4.74M26.101 79.326s-3.76 1.988-7.853 2.336l.363 16.172s6.871 3.188 20.318-3.522c0 0-7.483-8.14-12.828-14.986M15.51 98.59l.305-13.598-12.113 1.115s-8.76 1.318.672 6.72c0 0 4.497 3.538 11.135 5.764M51.094 45.327L39.25 50.995l-3.704-10.533s-2.227-7.82 6.174-2.115c0 0 4.85 2.338 9.374 6.98M223.393 65.974c4.105-9.86 16.358-14.883 27.325-11.195 10.962 3.684 16.542 14.708 12.445 24.568-1.403 3.375-3.775 6.167-6.712 8.254a159.52 159.52 0 0 1 9.046 5.324c3.184-2.818 5.757-6.285 7.424-10.297 6.12-14.722-2.188-31.12-18.556-36.62-16.37-5.508-34.602 1.965-40.726 16.686a26.084 26.084 0 0 0-1.964 8.424c3.468.74 6.947 1.592 10.414 2.563a17.28 17.28 0 0 1 1.304-7.707"/>
        <g transform="translate(270.068 43.063)">
            <mask id="b" fill="#fff">
                <use xlink:href="#a"/>
            </mask>
            <path fill="#F79823" d="M11.534 39.789L26.2 2.434s.209-3.035-2.74-.933c0 0-14.777 19.288-16.304 36.191 0 0 .828.83-.221 3.304L.422 56.364a162.77 162.77 0 0 1 3.495 2.523l7.617-19.098z" mask="url(#b)"/>
        </g>
        <path fill="#F79823" d="M215.35 44.25c.019-.047.036-.098.057-.148.488-.388 1.664-.788 1.664-.788.65-.257 1.85-1.787 1.85-1.787 1.867-2.802 5.968-17.083 5.968-17.083l.148-.745c.111-.503-.296-.166-.296-.166l-1.053 1.842-3.989 9.818c-.378 1.081-.87.722-.87.722-.53-.278.047-1.164.047-1.164l3.943-9.935.35-1.535c.224-.912-.345-.12-.345-.12l-1.03 1.72-4.064 9.922c-.287.517-.588.489-.672.467-.086-.038-.333-.196-.183-.762l4.009-9.94.445-1.921s.142-.94-.345-.12l-.832 1.373-4.102 9.877s-.2 1.015-.795.908c0 0-.627-.027-.14-1.07l3.989-9.821.513-2.023s-.063-.502-.34-.053l-.415.654s-7.09 13.252-7.679 16.493c0 0-.182 1.88.127 2.466 0 0 .64 1.078.7 1.655.008.041.008.079.003.116l-10.07 24.217c1.32.208 2.648.432 3.968.675l9.44-23.743z"/>
        <path fill="#F79823" d="M289.532 113.566c-18.4-17.346-40.76-31.285-65.412-41.016-24.64-9.708-51.71-14.888-78.784-14.753-27.083.077-53.996 5.35-78.67 14.864-12.335 4.778-24.153 10.568-35.202 17.346-5.517 3.41-10.862 7.024-15.946 10.931-5.082 3.892-9.956 8.051-14.301 12.628 11.5-5.8 23.17-10.785 34.975-15.245 11.506-4.328 23.143-8.088 34.905-11.182 5.878 4.424 11.297 9.603 16.2 15.542 9.121 10.867 9.548 9.863 16.389 24.24 3.899-14.06.59-21.021-7.302-34.8a79.918 79.918 0 0 0-6.33-9.403 293.837 293.837 0 0 1 32.212-4.647c4.57 3.445 8.783 7.475 12.596 12.097 7.124 8.49 12.801 18.936 18.148 30.17-1.078-14.574-4.883-27.654-11.05-38.42a63.828 63.828 0 0 0-3.05-4.79 279.99 279.99 0 0 1 6.497-.105 268.66 268.66 0 0 1 29.205 1.52c4.11 3.329 7.935 7.123 11.45 11.377 7.659 9.13 13.763 20.355 19.51 32.433-1.154-15.579-5.213-29.56-11.771-41.099a288.46 288.46 0 0 1 24.857 5.543c24.104 6.379 47.396 15.99 70.874 26.77M106.634 25.088s-.134-3.145-4.528-3.557c-4.386.454-4.488 3.6-4.488 3.6-10.908 2.222-14.895 11.132-14.895 11.132l19.465-.088v-.002l19.464-.087s-4.087-8.88-15.018-10.998"/>
        <path fill="#F79823" d="M127.794 57.698c4.422-11.636-4.345-17.901-4.345-17.901 10.83-5.358 12.65 4.367 12.65 4.367.632 7.96-8.305 13.534-8.305 13.534m7.92-19.229c-6.282-5.003-14.574.07-14.574.07l-.89-.826-39.414.186C68.143 47.69 74.22 59.166 74.22 59.166c-4.845-1.746-4.068-10.376-4.068-10.376-.515-8.184-10.543-7.363-10.543-7.363l.025 4.267c.034-.002.073-.002.112-.002.32.016 1.293.099 2.33.494h.002c1.566.6 3.268 1.908 3.062 4.781v.002c-.007.032-1.298 6.157 4.729 10.707 4.579 4.094 9.817 3.77 9.817 3.77 6.046 5.172 15.022 6.898 15.022 6.898 20.78 1.563 27.813-7.43 27.813-7.43l2.884-2.636c6.562-4.808 8.7-7.115 8.7-7.115 9.258-8.411 1.608-16.694 1.608-16.694"/>
        <path fill="#010202" d="M48.367 172.78c-2.348-.384-5.113-.579-8.293-.579-2.584 0-5.216.099-7.89.291a123.45 123.45 0 0 0-8.172.868l-2.265.216c-1.09.097-1.988.182-2.694.253-.706.073-1.207.109-1.505.109-.895 0-1.444-.23-1.644-.687-.203-.458-.059-1.193.427-2.207.163-.336.385-.746.667-1.228.281-.483.598-1.037.95-1.665a176.545 176.545 0 0 0 15.588-8.534 187.867 187.867 0 0 0 14.533-9.911c4.649-3.568 8.416-6.798 11.3-9.692 2.882-2.893 4.882-5.498 5.997-7.813 1.09-2.265 1.267-3.978.533-5.135-.736-1.157-2.42-1.736-5.052-1.736-2.933 0-6.08.808-9.44 2.423-3.364 1.617-6.95 4.064-10.765 7.342.175-.675.36-1.29.553-1.845a14.21 14.21 0 0 1 .602-1.483c.673-1.398 1.824-2.758 3.457-4.086 1.632-1.325 3.744-2.614 6.335-3.87 2.59-1.254 5.086-2.181 7.49-2.784 2.401-.604 4.72-.905 6.957-.905 1.987 0 3.66.217 5.017.651 1.355.433 2.422 1.133 3.2 2.098a5.014 5.014 0 0 1 1.17 3.147c.028 1.182-.32 2.52-1.039 4.015-2.112 4.387-7.126 9.668-15.04 15.84-7.918 6.172-18.734 13.236-32.45 21.194 4.378-.53 8.352-.94 11.92-1.23 3.567-.289 6.718-.433 9.452-.433 2.036 0 3.63.144 4.786.432 1.15.29 1.922.7 2.314 1.23.34.533.407 1.424.203 2.677-.207 1.255-.7 2.845-1.479 4.774-1.467-.771-3.375-1.35-5.723-1.736"/>
        <path stroke="#FEFEFE" d="M48.367 172.78c-2.348-.384-5.113-.579-8.293-.579-2.584 0-5.216.099-7.89.291a123.45 123.45 0 0 0-8.172.868l-2.265.216c-1.09.097-1.988.182-2.694.253-.706.073-1.207.109-1.505.109-.895 0-1.444-.23-1.644-.687-.203-.458-.059-1.193.427-2.207.163-.336.385-.746.667-1.228.281-.483.598-1.037.95-1.665a176.545 176.545 0 0 0 15.588-8.534 187.867 187.867 0 0 0 14.533-9.911c4.649-3.568 8.416-6.798 11.3-9.692 2.882-2.893 4.882-5.498 5.997-7.813 1.09-2.265 1.267-3.978.533-5.135-.736-1.157-2.42-1.736-5.052-1.736-2.933 0-6.08.808-9.44 2.423-3.364 1.617-6.95 4.064-10.765 7.342.175-.675.36-1.29.553-1.845a14.21 14.21 0 0 1 .602-1.483c.673-1.398 1.824-2.758 3.457-4.086 1.632-1.325 3.744-2.614 6.335-3.87 2.59-1.254 5.086-2.181 7.49-2.784 2.401-.604 4.72-.905 6.957-.905 1.987 0 3.66.217 5.017.651 1.355.433 2.422 1.133 3.2 2.098a5.014 5.014 0 0 1 1.17 3.147c.028 1.182-.32 2.52-1.039 4.015-2.112 4.387-7.126 9.668-15.04 15.84-7.918 6.172-18.734 13.236-32.45 21.194 4.378-.53 8.352-.94 11.92-1.23 3.567-.289 6.718-.433 9.452-.433 2.036 0 3.63.144 4.786.432 1.15.29 1.922.7 2.314 1.23.34.533.407 1.424.203 2.677-.207 1.255-.7 2.845-1.479 4.774-1.467-.771-3.375-1.35-5.723-1.736z"/>
        <path fill="#010202" d="M122.294 139.531a7.77 7.77 0 0 1 .223-1.811 8.15 8.15 0 0 1 .649-1.744c1.004-1.99 2.836-3.897 5.499-5.723 2.659-1.824 6.139-3.542 10.435-5.154 4.317-1.659 8.593-2.903 12.827-3.733a65.253 65.253 0 0 1 12.57-1.244c2.354 0 4.364.202 6.03.604 1.665.404 3.012 1.008 4.04 1.813 1.001.854 1.593 1.813 1.772 2.88.178 1.066-.066 2.263-.736 3.59-1.244 2.466-3.4 4.86-6.464 7.181-3.068 2.322-7.046 4.575-11.933 6.754 1.936.523 3.561 1.21 4.873 2.062 1.309.854 2.305 1.826 2.983 2.916.705 1.137 1.043 2.347 1.012 3.626-.032 1.28-.405 2.63-1.124 4.052-1.41 2.798-3.528 5.393-6.346 7.786-2.821 2.394-6.387 4.563-10.695 6.506a66.589 66.589 0 0 1-13.037 4.302 64.53 64.53 0 0 1-13.754 1.456c-3.43 0-5.752-.497-6.964-1.493-1.214-.994-1.341-2.44-.384-4.337.262-.52.758-1.326 1.488-2.417.728-1.09 1.715-2.512 2.958-4.266l17.748-24.671a64.534 64.534 0 0 0 1.716-2.49c.462-.71.8-1.278 1.016-1.706a3.23 3.23 0 0 0 .343-1.137 3.024 3.024 0 0 0-.075-1.067c1.923-.568 3.535-.995 4.83-1.279 1.296-.285 2.276-.427 2.941-.427.768 0 1.242.202 1.424.604.18.404.067 1.008-.339 1.814-.096.189-.51.806-1.24 1.848a269.89 269.89 0 0 1-3.075 4.267l-16.394 22.75a81.306 81.306 0 0 0-2.357 3.378c-.572.878-.952 1.505-1.143 1.885-.74 1.468-.543 2.571.597 3.306 1.14.735 3.221 1.1 6.242 1.1a27.82 27.82 0 0 0 7.338-.993c2.434-.664 4.855-1.66 7.266-2.988 2.46-1.327 4.522-2.772 6.182-4.336 1.66-1.564 2.956-3.27 3.889-5.12.716-1.421 1.12-2.702 1.207-3.838.087-1.138-.153-2.11-.718-2.916-.567-.805-1.514-1.516-2.84-2.134-1.33-.614-3.011-1.137-5.049-1.563-.961.284-1.929.498-2.893.64-.97.143-1.914.213-2.836.213-.358 0-.73-.023-1.117-.07a11.646 11.646 0 0 1-1.196-.214c.978-1.232 1.91-2.263 2.789-3.092.879-.83 1.682-1.458 2.408-1.885.779-.427 1.663-.758 2.655-.996.989-.236 2.099-.356 3.327-.356.308 0 .672.013 1.095.036.423.026.878.06 1.368.107 1.785-.9 3.405-1.8 4.857-2.703 1.453-.898 2.74-1.8 3.86-2.7 1.096-.855 2.037-1.73 2.825-2.63.787-.9 1.407-1.802 1.863-2.703 1.052-2.085.983-3.65-.206-4.693-1.19-1.041-3.524-1.564-7.006-1.564-5.581 0-11.477 1.233-17.686 3.698-6.21 2.464-12.736 6.162-19.575 11.091l.037-.072z"/>
        <path stroke="#FEFEFE" d="M122.294 139.531a7.77 7.77 0 0 1 .223-1.811 8.15 8.15 0 0 1 .649-1.744c1.004-1.99 2.836-3.897 5.499-5.723 2.659-1.824 6.139-3.542 10.435-5.154 4.317-1.659 8.593-2.903 12.827-3.733a65.253 65.253 0 0 1 12.57-1.244c2.354 0 4.364.202 6.03.604 1.665.404 3.012 1.008 4.04 1.813 1.001.854 1.593 1.813 1.772 2.88.178 1.066-.066 2.263-.736 3.59-1.244 2.466-3.4 4.86-6.464 7.181-3.068 2.322-7.046 4.575-11.933 6.754 1.936.523 3.561 1.21 4.873 2.062 1.309.854 2.305 1.826 2.983 2.916.705 1.137 1.043 2.347 1.012 3.626-.032 1.28-.405 2.63-1.124 4.052-1.41 2.798-3.528 5.393-6.346 7.786-2.821 2.394-6.387 4.563-10.695 6.506a66.589 66.589 0 0 1-13.037 4.302 64.53 64.53 0 0 1-13.754 1.456c-3.43 0-5.752-.497-6.964-1.493-1.214-.994-1.341-2.44-.384-4.337.262-.52.758-1.326 1.488-2.417.728-1.09 1.715-2.512 2.958-4.266l17.748-24.671a64.534 64.534 0 0 0 1.716-2.49c.462-.71.8-1.278 1.016-1.706a3.23 3.23 0 0 0 .343-1.137 3.024 3.024 0 0 0-.075-1.067c1.923-.568 3.535-.995 4.83-1.279 1.296-.285 2.276-.427 2.941-.427.768 0 1.242.202 1.424.604.18.404.067 1.008-.339 1.814-.096.189-.51.806-1.24 1.848a269.89 269.89 0 0 1-3.075 4.267l-16.394 22.75a81.306 81.306 0 0 0-2.357 3.378c-.572.878-.952 1.505-1.143 1.885-.74 1.468-.543 2.571.597 3.306 1.14.735 3.221 1.1 6.242 1.1a27.82 27.82 0 0 0 7.338-.993c2.434-.664 4.855-1.66 7.266-2.988 2.46-1.327 4.522-2.772 6.182-4.336 1.66-1.564 2.956-3.27 3.889-5.12.716-1.421 1.12-2.702 1.207-3.838.087-1.138-.153-2.11-.718-2.916-.567-.805-1.514-1.516-2.84-2.134-1.33-.614-3.011-1.137-5.049-1.563-.961.284-1.929.498-2.893.64-.97.143-1.914.213-2.836.213-.358 0-.73-.023-1.117-.07a11.646 11.646 0 0 1-1.196-.214c.978-1.232 1.91-2.263 2.789-3.092.879-.83 1.682-1.458 2.408-1.885.779-.427 1.663-.758 2.655-.996.989-.236 2.099-.356 3.327-.356.308 0 .672.013 1.095.036.423.026.878.06 1.368.107 1.785-.9 3.405-1.8 4.857-2.703 1.453-.898 2.74-1.8 3.86-2.7 1.096-.855 2.037-1.73 2.825-2.63.787-.9 1.407-1.802 1.863-2.703 1.052-2.085.983-3.65-.206-4.693-1.19-1.041-3.524-1.564-7.006-1.564-5.581 0-11.477 1.233-17.686 3.698-6.21 2.464-12.736 6.162-19.575 11.091l.037-.072z"/>
        <path fill="#010202" d="M207.732 127.057h.54c.847.048 1.956-.12 3.328-.507 1.37-.384 3.043-.962 5.017-1.733a71.31 71.31 0 0 0 5.398-2.348 51.779 51.779 0 0 0 4.322-2.347 30.103 30.103 0 0 1-4.497 4.477 40.85 40.85 0 0 1-5.41 3.685c-2.97 1.639-5.381 2.879-7.235 3.72-1.856.845-3.143 1.264-3.86 1.264-.514 0-.833-.131-.957-.396-.125-.265-.042-.687.245-1.265a22.3 22.3 0 0 1 1.377-2.384 14.04 14.04 0 0 1 1.696-2.095l.036-.071zm9.851 30.302c-4.682 3.638-9.117 6.78-13.305 9.428-4.166 2.6-7.875 4.54-11.124 5.815-3.25 1.276-6.03 1.915-8.338 1.915-1.384 0-2.539-.206-3.464-.615-.924-.408-1.62-1.022-2.083-1.842-.39-.866-.521-1.866-.393-2.997.125-1.131.537-2.395 1.233-3.793.262-.53.668-1.216 1.215-2.059.547-.842 1.21-1.842 1.992-2.998l2.786-3.901c1.981-2.744 3.61-5.093 4.889-7.042 1.276-1.95 2.205-3.505 2.78-4.66.334-.675.525-1.288.568-1.842.045-.552-.03-1.048-.224-1.48 1.808-.338 3.267-.59 4.378-.759 1.109-.167 1.868-.253 2.28-.253.923 0 1.465.3 1.627.904.162.602-.056 1.504-.655 2.708-.456.915-1.097 2.023-1.922 3.323a108.76 108.76 0 0 1-3.036 4.48l-4.875 6.861a175.126 175.126 0 0 0-2.856 4.117c-.708 1.06-1.192 1.855-1.455 2.385-.718 1.444-.924 2.528-.618 3.25.309.722 1.103 1.083 2.386 1.083 1.589 0 3.729-.613 6.416-1.842 2.687-1.227 5.95-3.07 9.786-5.525 3.81-2.504 7.764-5.32 11.86-8.452 4.095-3.13 8.293-6.597 12.598-10.402l2.326 1.66c-5.169 4.722-10.093 8.898-14.772 12.533z"/>
        <path stroke="#FEFEFE" d="M207.732 127.057h.54c.847.048 1.956-.12 3.328-.507 1.37-.384 3.043-.962 5.017-1.733a71.31 71.31 0 0 0 5.398-2.348 51.779 51.779 0 0 0 4.322-2.347 30.103 30.103 0 0 1-4.497 4.477 40.85 40.85 0 0 1-5.41 3.685c-2.97 1.639-5.381 2.879-7.235 3.72-1.856.845-3.143 1.264-3.86 1.264-.514 0-.833-.131-.957-.396-.125-.265-.042-.687.245-1.265a22.3 22.3 0 0 1 1.377-2.384 14.04 14.04 0 0 1 1.696-2.095l.036-.071zm9.851 30.302c-4.682 3.638-9.117 6.78-13.305 9.428-4.166 2.6-7.875 4.54-11.124 5.815-3.25 1.276-6.03 1.915-8.338 1.915-1.384 0-2.539-.206-3.464-.615-.924-.408-1.62-1.022-2.083-1.842-.39-.866-.521-1.866-.393-2.997.125-1.131.537-2.395 1.233-3.793.262-.53.668-1.216 1.215-2.059.547-.842 1.21-1.842 1.992-2.998l2.786-3.901c1.981-2.744 3.61-5.093 4.889-7.042 1.276-1.95 2.205-3.505 2.78-4.66.334-.675.525-1.288.568-1.842.045-.552-.03-1.048-.224-1.48 1.808-.338 3.267-.59 4.378-.759 1.109-.167 1.868-.253 2.28-.253.923 0 1.465.3 1.627.904.162.602-.056 1.504-.655 2.708-.456.915-1.097 2.023-1.922 3.323a108.76 108.76 0 0 1-3.036 4.48l-4.875 6.861a175.126 175.126 0 0 0-2.856 4.117c-.708 1.06-1.192 1.855-1.455 2.385-.718 1.444-.924 2.528-.618 3.25.309.722 1.103 1.083 2.386 1.083 1.589 0 3.729-.613 6.416-1.842 2.687-1.227 5.95-3.07 9.786-5.525 3.81-2.504 7.764-5.32 11.86-8.452 4.095-3.13 8.293-6.597 12.598-10.402l2.326 1.66c-5.169 4.722-10.093 8.898-14.772 12.533z"/>
        <path fill="#010202" d="M234.054 163.873c-4.614 1.918-8.176 3.585-10.682 4.998-2.508 1.415-4.011 2.626-4.51 3.634-.451.91-.422 1.593.09 2.05.512.455 1.505.683 2.981.683 1.12 0 2.209-.17 3.266-.505 1.055-.336 2.093-.862 3.11-1.582a11.363 11.363 0 0 0 2.688-2.265 14.099 14.099 0 0 0 1.977-2.985c.331-.67.583-1.331.75-1.977a9.27 9.27 0 0 0 .295-1.978l.035-.073zm7.904-3.165c-.07.96-.19 1.846-.366 2.662a10.42 10.42 0 0 1-.868 2.445c-.88 1.774-2.1 3.44-3.66 4.999-1.563 1.56-3.452 2.984-5.671 4.279-2.219 1.296-4.437 2.277-6.652 2.949-2.215.671-4.392 1.008-6.528 1.008-1.273 0-2.371-.146-3.297-.432-.927-.289-1.667-.745-2.223-1.367-.557-.624-.886-1.294-.987-2.013-.1-.72.039-1.464.418-2.231.476-.957 1.25-1.905 2.325-2.84 1.074-.936 2.447-1.859 4.12-2.77 1.696-.958 3.836-1.99 6.418-3.092 2.581-1.103 5.58-2.277 8.997-3.525l-.695-4.603c-.5-2.684-.661-5.106-.48-7.264.177-2.158.66-4.028 1.443-5.61 1.093-2.205 2.773-4.207 5.038-6.006 2.265-1.797 5.104-3.368 8.516-4.71 1.371.624 2.292 1.307 2.763 2.049.471.744.469 1.595-.006 2.553-.667 1.344-1.842 2.638-3.528 3.884-1.686 1.248-3.896 2.472-6.626 3.668l.637 7.335.465 5.684a257.791 257.791 0 0 0 8.095-3.704c2.339-1.126 4.357-2.17 6.053-3.129 1.647-.959 3.594-2.169 5.846-3.632a221.527 221.527 0 0 0 7.623-5.215l2.156 1.654a118.921 118.921 0 0 1-13.887 9.387 134.026 134.026 0 0 1-15.475 7.66l.036-.073z"/>
        <path stroke="#FEFEFE" d="M234.054 163.873c-4.614 1.918-8.176 3.585-10.682 4.998-2.508 1.415-4.011 2.626-4.51 3.634-.451.91-.422 1.593.09 2.05.512.455 1.505.683 2.981.683 1.12 0 2.209-.17 3.266-.505 1.055-.336 2.093-.862 3.11-1.582a11.363 11.363 0 0 0 2.688-2.265 14.099 14.099 0 0 0 1.977-2.985c.331-.67.583-1.331.75-1.977a9.27 9.27 0 0 0 .295-1.978l.035-.073zm7.904-3.165c-.07.96-.19 1.846-.366 2.662a10.42 10.42 0 0 1-.868 2.445c-.88 1.774-2.1 3.44-3.66 4.999-1.563 1.56-3.452 2.984-5.671 4.279-2.219 1.296-4.437 2.277-6.652 2.949-2.215.671-4.392 1.008-6.528 1.008-1.273 0-2.371-.146-3.297-.432-.927-.289-1.667-.745-2.223-1.367-.557-.624-.886-1.294-.987-2.013-.1-.72.039-1.464.418-2.231.476-.957 1.25-1.905 2.325-2.84 1.074-.936 2.447-1.859 4.12-2.77 1.696-.958 3.836-1.99 6.418-3.092 2.581-1.103 5.58-2.277 8.997-3.525l-.695-4.603c-.5-2.684-.661-5.106-.48-7.264.177-2.158.66-4.028 1.443-5.61 1.093-2.205 2.773-4.207 5.038-6.006 2.265-1.797 5.104-3.368 8.516-4.71 1.371.624 2.292 1.307 2.763 2.049.471.744.469 1.595-.006 2.553-.667 1.344-1.842 2.638-3.528 3.884-1.686 1.248-3.896 2.472-6.626 3.668l.637 7.335.465 5.684a257.791 257.791 0 0 0 8.095-3.704c2.339-1.126 4.357-2.17 6.053-3.129 1.647-.959 3.594-2.169 5.846-3.632a221.527 221.527 0 0 0 7.623-5.215l2.156 1.654a118.921 118.921 0 0 1-13.887 9.387 134.026 134.026 0 0 1-15.475 7.66l.036-.073z"/>
        <path fill="#F79823" d="M169.778 25.856c-15.416-1.816-33.417-5.116-14.356 36.417 0 0 8.65.613 19.406 2.32 29.884-33.297 12.412-36.68-5.05-38.737"/>
        <path stroke="#F79823" stroke-width="2" d="M190.613 39.663c25.571.108 6.48 20.912-8.135 19.16"/>
        <g transform="translate(166.663)">
            <mask id="d" fill="#fff">
                <use xlink:href="#c"/>
            </mask>
            <path fill="#F79823" d="M5.74.545c-.316 1.216-.632 2.292-.73 3.28-.111.985-.022 1.812.22 2.523.446 1.39 1.486 2.762 2.719 4.518 1.198 1.732 2.65 3.773 3.246 6.46.28 1.325.249 2.824-.29 4.114a5.825 5.825 0 0 1-2.648 2.933c.036-1.255-.028-2.326-.326-3.22-.285-.892-.714-1.608-1.238-2.337-1.033-1.452-2.487-2.948-3.844-4.884-.674-.969-1.34-2.048-1.824-3.318C.54 9.36.242 7.87.464 6.387A6.821 6.821 0 0 1 2.352 2.59 8.016 8.016 0 0 1 5.74.545" mask="url(#d)"/>
        </g>
        <path fill="#F79823" d="M162.554 11.332c.125 1.55.402 2.822 1.127 3.574.668.767 1.738 1.388 3.032 2.175 1.264.78 2.769 1.682 3.887 3.124.542.715.927 1.594.93 2.457a3.274 3.274 0 0 1-.901 2.269c-.285-.748-.595-1.374-1.02-1.854-.415-.482-.887-.836-1.432-1.171-1.077-.672-2.445-1.27-3.86-2.134-.7-.439-1.43-.932-2.088-1.574-.653-.636-1.245-1.442-1.501-2.349a3.718 3.718 0 0 1 .199-2.601 4.89 4.89 0 0 1 1.627-1.916M183.416 14.748c-.494.394-.863.788-.886 1.145-.041.341.07.674.227 1.09.312.817.783 1.795.904 2.925.148 1.114-.186 2.46-1.162 3.412-.96.958-2.295 1.482-3.67 1.611.75-.924 1.41-1.719 1.715-2.496.32-.77.343-1.485.258-2.34-.076-.853-.336-1.794-.285-2.953.04-.561.198-1.276.803-1.805.617-.515 1.41-.658 2.096-.589"/>
    </g>
</svg>
